<?xml version="1.0" encoding="UTF-8" standalone="no"?>
<!-- Created with Inkscape (http://www.inkscape.org/) -->

<svg
   xmlns:dc="http://purl.org/dc/elements/1.1/"
   xmlns:cc="http://creativecommons.org/ns#"
   xmlns:rdf="http://www.w3.org/1999/02/22-rdf-syntax-ns#"
   xmlns:svg="http://www.w3.org/2000/svg"
   xmlns="http://www.w3.org/2000/svg"
   xmlns:xlink="http://www.w3.org/1999/xlink"
   xmlns:sodipodi="http://sodipodi.sourceforge.net/DTD/sodipodi-0.dtd"
   xmlns:inkscape="http://www.inkscape.org/namespaces/inkscape"
   width="110.06667mm"
   height="110.06667mm"
   viewBox="0 0 390 390"
   id="svg4384"
   version="1.1"
   inkscape:version="0.91 r13725"
   sodipodi:docname="Department of Tourism (DOT).svg">
  <defs
     id="defs4386">
    <defs
       id="defs5432">
      <polygon
         id="SVGID_1_"
         points="354.2,381 124.9,380.3 124.9,101.3 354.2,102 " />
    </defs>
    <clipPath
       id="SVGID_2_">
      <use
         xlink:href="#SVGID_1_"
         overflow="visible"
         id="use5436"
         style="overflow:visible"
         x="0"
         y="0"
         width="100%"
         height="100%" />
    </clipPath>
    <defs
       id="defs5440">
      <polygon
         points="126.5,98.8 354.2,101.8 354.2,381 126.5,378 "
         id="SVGID_3_" />
    </defs>
    <clipPath
       id="SVGID_4_">
      <use
         height="100%"
         width="100%"
         y="0"
         x="0"
         style="overflow:visible"
         id="use5444"
         overflow="visible"
         xlink:href="#SVGID_3_" />
    </clipPath>
    <clipPath
       id="SVGID_4_-1">
      <use
         height="100%"
         width="100%"
         y="0"
         x="0"
         style="overflow:visible"
         id="use5444-4"
         overflow="visible"
         xlink:href="#SVGID_3_" />
    </clipPath>
    <clipPath
       id="SVGID_4_-3">
      <use
         height="100%"
         width="100%"
         y="0"
         x="0"
         style="overflow:visible"
         id="use5444-8"
         overflow="visible"
         xlink:href="#SVGID_3_" />
    </clipPath>
    <defs
       id="defs5432-0">
      <polygon
         points="354.2,381 124.9,380.3 124.9,101.3 354.2,102 "
         id="SVGID_1_-4" />
    </defs>
    <clipPath
       id="SVGID_2_-6">
      <use
         height="100%"
         width="100%"
         y="0"
         x="0"
         style="overflow:visible"
         id="use5436-2"
         overflow="visible"
         xlink:href="#SVGID_1_-4" />
    </clipPath>
    <defs
       id="defs5440-4">
      <polygon
         id="SVGID_3_-4"
         points="126.5,98.8 354.2,101.8 354.2,381 126.5,378 " />
    </defs>
    <clipPath
       id="SVGID_4_-19">
      <use
         xlink:href="#SVGID_3_-4"
         overflow="visible"
         id="use5444-6"
         style="overflow:visible"
         x="0"
         y="0"
         width="100%"
         height="100%" />
    </clipPath>
    <defs
       id="defs5432-6">
      <polygon
         points="124.9,101.3 354.2,102 354.2,381 124.9,380.3 "
         id="SVGID_1_-0" />
    </defs>
    <clipPath
       id="SVGID_2_-2">
      <use
         height="100%"
         width="100%"
         y="0"
         x="0"
         style="overflow:visible"
         id="use5436-7"
         overflow="visible"
         xlink:href="#SVGID_1_-0" />
    </clipPath>
    <defs
       id="defs5440-2">
      <polygon
         id="SVGID_3_-2"
         points="354.2,381 126.5,378 126.5,98.8 354.2,101.8 " />
    </defs>
    <clipPath
       id="SVGID_4_-15">
      <use
         xlink:href="#SVGID_3_-2"
         overflow="visible"
         id="use5444-9"
         style="overflow:visible"
         x="0"
         y="0"
         width="100%"
         height="100%" />
    </clipPath>
    <clipPath
       id="SVGID_4_-1-8">
      <use
         xlink:href="#SVGID_3_-2"
         overflow="visible"
         id="use5444-4-7"
         style="overflow:visible"
         x="0"
         y="0"
         width="100%"
         height="100%" />
    </clipPath>
    <clipPath
       id="SVGID_4_-3-7">
      <use
         xlink:href="#SVGID_3_-2"
         overflow="visible"
         id="use5444-8-2"
         style="overflow:visible"
         x="0"
         y="0"
         width="100%"
         height="100%" />
    </clipPath>
    <clipPath
       id="SVGID_4_-1-9">
      <use
         height="100%"
         width="100%"
         y="0"
         x="0"
         style="overflow:visible"
         id="use5444-4-4"
         overflow="visible"
         xlink:href="#SVGID_3_" />
    </clipPath>
    <clipPath
       id="SVGID_4_-1-99">
      <use
         height="100%"
         width="100%"
         y="0"
         x="0"
         style="overflow:visible"
         id="use5444-4-9"
         overflow="visible"
         xlink:href="#SVGID_3_" />
    </clipPath>
    <clipPath
       id="SVGID_4_-1-99-5">
      <use
         height="100%"
         width="100%"
         y="0"
         x="0"
         style="overflow:visible"
         id="use5444-4-9-1"
         overflow="visible"
         xlink:href="#SVGID_3_" />
    </clipPath>
  </defs>
  <sodipodi:namedview
     id="base"
     pagecolor="#ffffff"
     bordercolor="#666666"
     borderopacity="1.0"
     inkscape:pageopacity="0.0"
     inkscape:pageshadow="2"
     inkscape:zoom="0.49497475"
     inkscape:cx="302.31104"
     inkscape:cy="411.23656"
     inkscape:document-units="px"
     inkscape:current-layer="layer1"
     showgrid="false"
     inkscape:snap-global="true"
     fit-margin-top="0"
     fit-margin-left="0"
     fit-margin-right="0"
     fit-margin-bottom="0"
     inkscape:snap-object-midpoints="true"
     inkscape:window-width="1366"
     inkscape:window-height="705"
     inkscape:window-x="-4"
     inkscape:window-y="-4"
     inkscape:window-maximized="1" />
  <metadata
     id="metadata4389">
    <rdf:RDF>
      <cc:Work
         rdf:about="">
        <dc:format>image/svg+xml</dc:format>
        <dc:type
           rdf:resource="http://purl.org/dc/dcmitype/StillImage" />
        <dc:title></dc:title>
      </cc:Work>
    </rdf:RDF>
  </metadata>
  <g
     inkscape:label="Layer 1"
     inkscape:groupmode="layer"
     id="layer1"
     transform="translate(4.5917363,-441.2396)">
    <g
       id="g7265">
      <circle
         r="191.10001"
         cy="636.23956"
         cx="190.40828"
         id="path6771-8"
         style="fill:#ffffff;fill-opacity:1;stroke:#d4af37;stroke-width:7.80000019;stroke-linecap:round;stroke-linejoin:miter;stroke-miterlimit:4;stroke-dasharray:none;stroke-dashoffset:0;stroke-opacity:1" />
      <circle
         r="136.50002"
         cy="635.04419"
         cx="191.60367"
         id="path6771"
         style="fill:#d4af37;fill-opacity:1;stroke:none;stroke-width:0.35027695;stroke-linecap:round;stroke-linejoin:miter;stroke-miterlimit:4;stroke-dasharray:none;stroke-dashoffset:0;stroke-opacity:1" />
      <g
         style="stroke:none"
         transform="matrix(0.51918365,0,0,0.5217748,-2.1691545,398.12722)"
         id="g6804">
        <path
           style="fill:#ffffff;fill-rule:evenodd;stroke:none;stroke-width:0.30000001;stroke-linecap:butt;stroke-linejoin:miter;stroke-miterlimit:4;stroke-dasharray:none;stroke-opacity:1"
           d="m 174.93872,563.43363 c -2.02236,-0.65492 -4.44189,-1.25808 -6.36729,-0.35714 -1.66817,0.78058 -2.97931,2.61953 -3.29722,4.43365 -1.08561,6.1948 2.07979,12.75009 5.44008,18.06635 4.54819,7.19563 10.63283,14.64966 18.92857,17.14286 8.29574,2.4932 116.78571,16.78571 116.78571,16.78571 0,0 10.56332,2.084 9.39032,-3.42721 -0.64548,-3.03276 -0.95572,-5.07811 -4.79232,-7.76305 -3.8366,-2.68494 -90.33315,-30.06187 -136.08785,-44.88117 z"
           id="path4943"
           inkscape:connector-curvature="0"
           sodipodi:nodetypes="caaazcszc" />
        <path
           style="fill:#ffffff;fill-rule:evenodd;stroke:none;stroke-width:0.30000001;stroke-linecap:butt;stroke-linejoin:miter;stroke-miterlimit:4;stroke-dasharray:none;stroke-opacity:1"
           d="m 166.72444,500.93363 c -7.54909,-4.27056 -20.02979,-5.56757 -26.01015,0.71429 -6.68445,7.02144 -4.62885,20.93325 0.63135,29.07651 8.0336,12.43672 28.17559,15.52241 40.08294,19.13778 55.36258,19.50017 110.1209,42.04386 115.71428,41.42856 0,0 9.49189,-1.13028 8.31889,-6.64149 -0.64548,-3.03276 -0.55118,-5.77782 -4.79232,-7.76305 -9.55089,-4.47065 -93.06934,-52.82901 -133.94499,-75.9526 z"
           id="path4943-9"
           inkscape:connector-curvature="0"
           sodipodi:nodetypes="saacssss" />
        <path
           style="fill:#ffffff;fill-rule:evenodd;stroke:none;stroke-width:0.30000001;stroke-linecap:butt;stroke-linejoin:miter;stroke-miterlimit:4;stroke-dasharray:none;stroke-opacity:1"
           d="m 166.8575,415.44628 c 0,0 -15.23713,-15.68559 -24.87282,-10.92784 -22.36121,14.36037 -11.99071,51.38466 9.77746,66.88108 46.14305,32.84852 105.61038,67.71527 146.08013,92.54715 3.08115,1.89056 10.71126,-1.60472 9.53826,-7.11593 -0.64548,-3.03276 -2.08318,-6.05237 -6.45549,-9.63017 -4.37231,-3.5778 -101.9499,-100.26747 -134.06754,-131.75429 z"
           id="path4943-7"
           inkscape:connector-curvature="0"
           sodipodi:nodetypes="ccssszc" />
        <path
           style="fill:#ffffff;fill-rule:evenodd;stroke:none;stroke-width:0.30000001;stroke-linecap:butt;stroke-linejoin:miter;stroke-miterlimit:4;stroke-dasharray:none;stroke-opacity:1"
           d="m 200.69762,329.22617 c 0,0 -14.1552,-23.00176 -30.5766,-12.52972 -19.86121,16.14608 -14.07606,55.87614 0.74737,73.08993 36.31856,42.17513 85.72857,97.12082 125.84118,141.9527 2.41041,2.694 10.73204,8.9551 17.82869,3.31735 4.2127,-3.34666 1.42171,-13.86835 -0.98631,-17.08901 -2.40802,-3.22066 -86.80812,-151.89728 -112.85433,-188.74125 z"
           id="path4943-7-5"
           inkscape:connector-curvature="0"
           sodipodi:nodetypes="ccssszc" />
        <path
           style="fill:#ffffff;fill-rule:evenodd;stroke:none;stroke-width:0.30000001;stroke-linecap:butt;stroke-linejoin:miter;stroke-miterlimit:4;stroke-dasharray:none;stroke-opacity:1"
           d="m 273.5214,274.08185 c 0,0 -11.78173,-37.65255 -37.43409,-27.68817 -24.14546,9.37904 -35.48497,41.60103 -22.87047,65.15664 25.43492,47.49572 77.21752,153.78668 101.97298,193.61856 1.90818,3.07028 4.21598,12.50084 18.28827,6.4555 6.57914,-2.82635 6.90546,-12.19934 4.61593,-17.84445 -2.25617,-5.56287 -50.63772,-178.61481 -64.57262,-219.69808 z"
           id="path4943-7-55"
           inkscape:connector-curvature="0"
           sodipodi:nodetypes="csssssc" />
        <path
           style="fill:#ffffff;fill-rule:evenodd;stroke:none;stroke-width:0.30000001;stroke-linecap:butt;stroke-linejoin:miter;stroke-miterlimit:4;stroke-dasharray:none;stroke-opacity:1"
           d="m 365.35247,246.24573 c 0,0 -5.64068,-44.98002 -46.08602,-34.66643 -30.44243,8.80453 -33.08705,41.76163 -29.61849,57.28463 13.00766,58.21369 40.52523,162.7673 54.36545,218.45907 1.75272,7.05278 13.54894,13.00968 19.16536,10.59237 8.12669,-3.49773 8.41466,-9.37236 8.13044,-15.6298 -3.57113,-78.62394 -4.80194,-194.39022 -5.95674,-236.03984 z"
           id="path4943-7-6"
           inkscape:connector-curvature="0"
           sodipodi:nodetypes="ccssssc" />
        <path
           style="fill:#ffffff;fill-rule:evenodd;stroke:none;stroke-width:0.30000001;stroke-linecap:butt;stroke-linejoin:miter;stroke-miterlimit:4;stroke-dasharray:none;stroke-opacity:1"
           d="m 574.51766,562.44377 c 2.02236,-0.65492 4.44189,-1.25808 6.36729,-0.35714 1.66817,0.78058 2.97931,2.61953 3.29722,4.43365 1.08561,6.1948 -2.07979,12.75009 -5.44008,18.06635 -4.54819,7.19563 -10.63283,14.64966 -18.92857,17.14286 -8.29574,2.4932 -116.78571,16.78571 -116.78571,16.78571 0,0 -10.56332,2.084 -9.39032,-3.42721 0.64548,-3.03276 0.95572,-5.07811 4.79232,-7.76305 3.8366,-2.68494 90.33315,-30.06187 136.08785,-44.88117 z"
           id="path4943-0"
           inkscape:connector-curvature="0"
           sodipodi:nodetypes="caaazcszc" />
        <path
           style="fill:#ffffff;fill-rule:evenodd;stroke:none;stroke-width:0.30000001;stroke-linecap:butt;stroke-linejoin:miter;stroke-miterlimit:4;stroke-dasharray:none;stroke-opacity:1"
           d="m 582.73194,499.94378 c 7.54909,-4.27056 20.02979,-5.56757 26.01015,0.71429 6.68445,7.02143 4.62885,20.93324 -0.63135,29.0765 -8.0336,12.43672 -28.17559,15.52241 -40.08294,19.13778 -55.36258,19.50017 -110.1209,42.04386 -115.71428,41.42856 0,0 -9.49189,-1.13028 -8.31889,-6.64149 0.64548,-3.03276 0.55118,-5.77782 4.79232,-7.76305 9.55089,-4.47065 93.06934,-52.82901 133.94499,-75.95259 z"
           id="path4943-9-5"
           inkscape:connector-curvature="0"
           sodipodi:nodetypes="saacssss" />
        <path
           style="fill:#ffffff;fill-rule:evenodd;stroke:none;stroke-width:0.30000001;stroke-linecap:butt;stroke-linejoin:miter;stroke-miterlimit:4;stroke-dasharray:none;stroke-opacity:1"
           d="m 582.59888,414.45643 c 0,0 15.23713,-15.68559 24.87282,-10.92784 22.36121,14.36037 11.99071,51.38466 -9.77746,66.88108 -46.14305,32.84851 -105.61038,67.71526 -146.08013,92.54714 -3.08115,1.89056 -10.71126,-1.60472 -9.53826,-7.11593 0.64548,-3.03276 2.08318,-6.05237 6.45549,-9.63017 4.37231,-3.5778 101.9499,-100.26746 134.06754,-131.75428 z"
           id="path4943-7-4"
           inkscape:connector-curvature="0"
           sodipodi:nodetypes="ccssszc" />
        <path
           style="fill:#ffffff;fill-rule:evenodd;stroke:none;stroke-width:0.30000001;stroke-linecap:butt;stroke-linejoin:miter;stroke-miterlimit:4;stroke-dasharray:none;stroke-opacity:1"
           d="m 548.76641,329.94046 c 0,0 14.1552,-23.00176 30.5766,-12.52972 19.86121,16.14608 14.07606,55.87614 -0.74737,73.08993 -36.31856,42.17513 -85.72857,97.12082 -125.84118,141.9527 -2.41041,2.694 -10.73204,8.9551 -17.82869,3.31735 -4.2127,-3.34666 -1.42171,-13.86835 0.98631,-17.08901 2.40802,-3.22066 86.80812,-151.89728 112.85433,-188.74125 z"
           id="path4943-7-5-9"
           inkscape:connector-curvature="0"
           sodipodi:nodetypes="ccssszc" />
        <path
           style="fill:#ffffff;fill-rule:evenodd;stroke:none;stroke-width:0.30000001;stroke-linecap:butt;stroke-linejoin:miter;stroke-miterlimit:4;stroke-dasharray:none;stroke-opacity:1"
           d="m 475.94263,274.79614 c 0,0 11.78173,-37.65255 37.43409,-27.68817 24.14546,9.37904 35.48497,41.60103 22.87047,65.15664 -25.43492,47.49572 -77.21752,153.78668 -101.97298,193.61856 -1.90818,3.07028 -4.21598,12.50084 -18.28827,6.4555 -6.57914,-2.82635 -6.90546,-12.19934 -4.61593,-17.84445 2.25617,-5.56287 50.63772,-178.61481 64.57262,-219.69808 z"
           id="path4943-7-55-6"
           inkscape:connector-curvature="0"
           sodipodi:nodetypes="csssssc" />
        <path
           style="fill:#ffffff;fill-rule:evenodd;stroke:none;stroke-width:0.30000001;stroke-linecap:butt;stroke-linejoin:miter;stroke-miterlimit:4;stroke-dasharray:none;stroke-opacity:1"
           d="m 384.11156,246.96002 c 0,0 5.64068,-44.98002 46.08602,-34.66643 30.44243,8.80453 33.08705,41.76163 29.61849,57.28463 -13.00766,58.21369 -40.52523,162.7673 -54.36545,218.45907 -1.75272,7.05278 -13.54894,13.00968 -19.16536,10.59237 -8.12669,-3.49773 -8.41466,-9.37236 -8.13044,-15.6298 3.57113,-78.62394 4.80194,-194.39022 5.95674,-236.03984 z"
           id="path4943-7-6-0"
           inkscape:connector-curvature="0"
           sodipodi:nodetypes="ccssssc" />
        <circle
           style="fill:#ffffff;fill-opacity:1;stroke:none;stroke-width:0.30000001;stroke-linecap:round;stroke-linejoin:miter;stroke-miterlimit:4;stroke-dasharray:none;stroke-dashoffset:0;stroke-opacity:1"
           id="path5065"
           cx="374.64285"
           cy="570.57648"
           r="62.5" />
        <path
           style="fill:#ffffff;fill-rule:evenodd;stroke:none;stroke-width:0.30000001;stroke-linecap:butt;stroke-linejoin:miter;stroke-miterlimit:4;stroke-dasharray:none;stroke-opacity:1"
           d="m 195.88017,618.99998 c 0,0 7.67012,2.39967 31.97697,6.63779 24.30685,4.23812 86.6563,6.45542 129.60389,19.63234 6.92052,2.12331 13.53186,6.23739 17.53897,12.80638 0,0 4.03433,-8.52104 20.46175,-13.48477 45.21576,-13.66246 95.23971,-13.15774 142.72716,-21.51523 5.27349,-0.9281 15.50508,-4.19907 15.50508,-4.19907 0,0 -63.37229,79.20691 -176.55113,79.19907 -116.85893,-0.008 -181.26269,-79.07651 -181.26269,-79.07651 z"
           id="path5067"
           inkscape:connector-curvature="0"
           sodipodi:nodetypes="czscsscsc" />
      </g>
      <path
         sodipodi:open="true"
         d="M -53.842448,746.28652 A 175.23978,175.23978 0 0 1 -194.81648,811.52584 175.23978,175.23978 0 0 1 -332.24451,739.11465"
         sodipodi:end="2.5149158"
         sodipodi:start="0.67818716"
         sodipodi:ry="175.23978"
         sodipodi:rx="175.23978"
         sodipodi:cy="636.34418"
         sodipodi:cx="-190.30365"
         sodipodi:type="arc"
         transform="scale(-1,1)"
         id="path6820"
         style="fill:#000000;fill-opacity:0;stroke:none;stroke-width:1.00088596;stroke-linecap:round;stroke-linejoin:miter;stroke-miterlimit:4;stroke-dasharray:none;stroke-dashoffset:0;stroke-opacity:1" />
      <path
         sodipodi:open="true"
         d="m 51.968962,683.9091 a 147.93791,147.93791 0 0 1 54.891928,-170.12616 147.93791,147.93791 0 0 1 178.62804,6.93199 147.93791,147.93791 0 0 1 41.5426,173.86847"
         sodipodi:end="0.41420335"
         sodipodi:start="2.804964"
         sodipodi:ry="147.93791"
         sodipodi:rx="147.93791"
         sodipodi:cy="635.04419"
         sodipodi:cx="191.60365"
         sodipodi:type="arc"
         id="path6820-6-5"
         style="fill:#000000;fill-opacity:0;stroke:none;stroke-width:1.00801146;stroke-linecap:round;stroke-linejoin:miter;stroke-miterlimit:4;stroke-dasharray:none;stroke-dashoffset:0;stroke-opacity:1" />
      <g
         transform="matrix(0.51999999,0,0,0.51999999,-2.2040335,398.99501)"
         id="text6852"
         style="font-style:normal;font-variant:normal;font-weight:bold;font-stretch:normal;font-size:45px;line-height:125%;font-family:HoeflerText;-inkscape-font-specification:'HoeflerText Bold';text-align:start;letter-spacing:0px;word-spacing:0px;writing-mode:lr-tb;text-anchor:start;fill:#000000;fill-opacity:1;stroke:none;stroke-width:1px;stroke-linecap:butt;stroke-linejoin:miter;stroke-opacity:1">
        <path
           id="path7094"
           style="font-style:normal;font-variant:normal;font-weight:bold;font-stretch:normal;font-size:75.00000763px;font-family:HoeflerText;-inkscape-font-specification:'HoeflerText Bold';letter-spacing:-3.00000024px;word-spacing:12.00000095px"
           d="m 64.110245,494.25088 c -14.261385,3.24092 -23.460019,15.56065 -19.12217,34.64897 0.747905,3.29109 2.529601,10.11594 3.294126,13.48017 0.781145,3.43736 2.403261,10.91378 3.004895,14.23811 0.06648,0.29254 0.937449,0.40226 1.449397,0.28592 0.585082,-0.13296 1.249955,-0.5917 1.183474,-0.88425 -0.697976,-6.45583 0.678319,-7.84537 4.55449,-8.72624 l 33.130294,-7.52891 c 3.876172,-0.88086 5.71783,-0.22261 7.805377,5.91745 0.139616,0.27592 0.937452,0.40226 1.449392,0.28592 0.58509,-0.13296 1.24996,-0.59171 1.18348,-0.88425 -0.89418,-3.25785 -2.662563,-10.70103 -3.443708,-14.13839 -0.764525,-3.36422 -2.107409,-10.2888 -2.855314,-13.57989 -4.60377,-20.25848 -18.103702,-26.18933 -31.633733,-23.11461 z m 2.642597,11.62851 c 13.164355,-2.99162 23.589327,1.25374 26.059069,12.46007 l 0.967276,4.9333 c 0.375608,1.99128 0.305749,4.39143 -3.277881,5.20582 l -35.909436,8.16047 c -3.58363,0.81439 -4.683936,-1.31985 -5.205814,-3.27788 l -1.259818,-4.86683 c -2.739007,-11.37586 5.096572,-19.54023 18.626604,-22.61495 z"
           inkscape:connector-curvature="0" />
        <path
           id="path7096"
           style="font-style:normal;font-variant:normal;font-weight:bold;font-stretch:normal;font-size:75.00000763px;font-family:HoeflerText;-inkscape-font-specification:'HoeflerText Bold';letter-spacing:-3.00000024px;word-spacing:12.00000095px"
           d="m 73.079924,437.90068 c -0.528941,-0.13545 -1.026823,0.85367 -0.999904,1.8283 0.01242,0.44983 0.09775,0.82261 0.324733,0.89137 6.95742,1.98367 12.456396,8.20923 12.648967,15.18157 l 0.165653,5.99771 c 0.05384,1.94926 -0.629616,4.36905 -4.303216,4.47051 l -17.168455,0.47418 -0.165652,-5.99771 c -0.124239,-4.49828 1.977459,-7.18233 8.031508,-8.0248 0.297815,-0.0833 0.576994,-0.84125 0.562499,-1.36605 -0.01656,-0.59977 -0.337157,-1.3412 -0.637043,-1.33292 -3.748571,0.10353 -6.062332,0.54258 -9.585988,0.6399 -3.523657,0.0973 -6.008067,-0.2092 -9.756638,-0.10567 -0.374857,0.0104 -0.579065,0.76628 -0.562499,1.36605 0.01449,0.5248 0.260115,1.2683 0.637043,1.33292 6.091321,0.50702 8.11305,3.07718 8.23729,7.57547 l 0.165652,5.99771 -16.043883,0.44312 c -3.6736,0.10146 -4.564546,-2.27484 -4.618383,-4.2241 l -0.165653,-5.99771 c -0.178076,-6.44755 4.039815,-11.29084 10.672928,-12.89959 0.222844,-0.0812 0.510306,-0.53929 0.495811,-1.06409 -0.02899,-1.0496 -0.499524,-1.78689 -1.022253,-1.69743 -4.327636,0.86981 -9.786055,1.54577 -13.978242,1.88664 0.282464,4.79403 0.830401,16.48336 0.967064,21.43148 0.136664,4.94811 0.238913,16.7998 0.219422,21.52715 0.0083,0.29988 0.84125,0.57699 1.36605,0.5625 0.599772,-0.0166 1.341203,-0.33716 1.332921,-0.63705 0.571637,-6.46825 2.192019,-7.5634 6.165504,-7.67315 l 34.037024,-0.94007 c 3.973485,-0.10975 5.651846,0.8943 6.504665,7.3232 0.08325,0.29782 0.841251,0.577 1.366051,0.5625 0.599771,-0.0166 1.341203,-0.33715 1.33292,-0.63704 -0.280394,-4.71906 -0.853179,-17.30804 -0.989842,-22.25616 -0.136663,-4.94811 -0.243054,-16.94975 -0.225633,-21.75206 -4.671005,-0.69631 -10.551906,-1.73434 -15.010421,-2.88668 z"
           inkscape:connector-curvature="0" />
        <path
           id="path7098"
           style="font-style:normal;font-variant:normal;font-weight:bold;font-stretch:normal;font-size:75.00000763px;font-family:HoeflerText;-inkscape-font-specification:'HoeflerText Bold';letter-spacing:-3.00000024px;word-spacing:12.00000095px"
           d="m 58.751651,384.81283 c -9.585519,-1.31281 -16.492786,3.79719 -18.477269,18.28693 -0.671671,4.90422 -0.605444,7.1843 -1.236408,11.79129 -0.630963,4.60699 -1.521513,8.34573 -2.193184,13.24995 -0.04071,0.29723 0.735955,0.7064 1.256099,0.77763 0.594451,0.0814 1.378222,-0.11404 1.418929,-0.41126 1.618271,-6.28858 3.172567,-7.13551 6.664966,-6.6572 l 34.403838,4.71188 c 3.938237,0.53937 5.430501,1.80355 5.22405,8.28548 0.0336,0.30741 0.735955,0.7064 1.2561,0.77764 0.594451,0.0814 1.378221,-0.11404 1.418929,-0.41127 0.671671,-4.90422 0.77845,-8.4475 1.409414,-13.05449 0.630964,-4.607 1.47063,-7.97421 2.142301,-12.87843 0.05088,-0.37153 -0.661649,-0.69621 -1.2561,-0.77763 -0.520144,-0.0712 -1.293738,0.0499 -1.418929,0.41127 -1.543965,6.29875 -3.311003,7.04085 -7.24924,6.50147 l -12.037628,-1.64864 c 0.592354,-2.11418 1.069694,-3.94131 1.476767,-6.91356 1.628293,-11.88902 -3.662955,-20.78931 -12.802635,-22.04106 z m -2.212567,11.73329 c 7.876472,1.07875 12.576183,4.90182 11.548323,12.40676 -0.335835,2.45211 -0.982142,4.40749 -3.285638,4.09201 l -17.09046,-2.34067 c -3.492399,-0.47831 -5.109853,-1.38114 -4.397475,-6.58258 0.692025,-5.05283 4.234182,-8.80691 13.22525,-7.57552 z"
           inkscape:connector-curvature="0" />
        <path
           id="path7100"
           style="font-style:normal;font-variant:normal;font-weight:bold;font-stretch:normal;font-size:75.00000763px;font-family:HoeflerText;-inkscape-font-specification:'HoeflerText Bold';letter-spacing:-3.00000024px;word-spacing:12.00000095px"
           d="m 109.28699,340.29034 c -0.50033,-0.15905 -1.35141,0.0426 -1.51376,0.30579 -2.2531,5.10745 -5.0823,6.33298 -9.942165,6.51952 l -45.411634,2.48498 c -0.308624,-0.0194 -0.821729,0.60447 -1.07165,1.3907 -0.227202,0.71476 -0.1685,1.5204 0.07196,1.75423 l 35.051247,30.10801 c 3.892849,3.59836 5.608757,5.87515 4.512047,10.56321 -0.0194,0.30862 0.536312,1.03615 1.036643,1.1952 0.549087,0.25323 1.332006,0.26601 1.445606,-0.0914 1.067847,-3.35937 1.233032,-5.11691 2.232718,-8.26185 1.249608,-3.93117 1.97051,-4.96118 3.310999,-9.17826 0.09088,-0.2859 -0.532997,-0.79901 -1.104804,-0.98077 -0.500331,-0.15904 -1.26053,-0.24329 -1.422886,0.0199 -1.645797,4.43482 -3.273165,5.098 -5.203012,4.48455 -1.000662,-0.31808 -2.07943,-1.13318 -3.158199,-1.94827 l -6.667633,-5.26737 4.725791,-14.86698 9.411115,-0.39248 c 1.257215,0.006 2.371477,-0.0332 3.229187,0.23949 1.7869,0.568 2.40132,2.10117 1.138933,6.81526 -0.0194,0.30862 0.649917,0.67878 1.150247,0.83782 0.57181,0.18176 1.37745,0.12306 1.46833,-0.16285 1.49953,-4.7174 2.30088,-8.47627 3.70952,-12.90777 1.27233,-4.00265 2.60668,-6.96251 4.10621,-11.67991 0.0909,-0.28591 -0.533,-0.79901 -1.10481,-0.98077 z m -26.308565,18.39454 -4.021467,12.65123 -14.943716,-11.9117 18.965183,-0.73953 z"
           inkscape:connector-curvature="0" />
        <path
           id="path7102"
           style="font-style:normal;font-variant:normal;font-weight:bold;font-stretch:normal;font-size:75.00000763px;font-family:HoeflerText;-inkscape-font-specification:'HoeflerText Bold';letter-spacing:-3.00000024px;word-spacing:12.00000095px"
           d="m 136.1786,291.09485 c -0.46208,-0.2492 -1.1934,-0.4732 -1.40182,-0.24475 -3.1982,4.66606 -5.5709,5.43151 -8.96419,5.56133 l -20.98498,1.46422 c 1.33577,-7.37475 -0.54002,-12.90265 -6.151011,-15.92877 -6.733191,-3.63134 -14.842209,-0.76166 -21.428467,11.4505 -2.349692,4.35677 -3.194479,6.71317 -5.401766,10.80589 -2.207286,4.09273 -4.246211,7.08328 -6.595903,11.44005 -0.178007,0.33006 0.441317,0.91971 0.903399,1.16892 0.528093,0.28481 1.295014,0.44279 1.473021,0.11273 3.686235,-5.25498 5.636912,-5.39591 9.135531,-3.50904 l 29.969306,16.16303 c 3.49862,1.88688 4.45245,3.59427 2.02044,9.52568 -0.112,0.36566 0.44132,0.91971 0.9034,1.16892 0.52809,0.28481 1.29501,0.44279 1.47302,0.11273 2.34969,-4.35677 3.6573,-7.57132 5.86458,-11.66404 2.20729,-4.09273 4.06821,-6.75322 6.4179,-11.10999 0.14241,-0.26405 -0.3753,-0.88411 -0.9034,-1.16892 -0.46208,-0.24921 -1.2646,-0.34118 -1.47302,-0.11273 -3.69143,5.4226 -5.4641,5.23348 -8.96271,3.3466 l -13.004305,-7.01347 c 2.171685,-4.02671 3.508225,-4.92492 8.344125,-5.04362 l 21.51753,-0.23967 c 1.03244,-1.91434 2.48245,-5.39293 3.51489,-7.30727 0.78323,-1.45226 3.35618,-5.43299 4.56662,-7.67738 0.17801,-0.33006 -0.3397,-0.95012 -0.83219,-1.30095 z m -42.466904,1.63789 c 6.865214,3.70254 8.574114,8.11789 4.907175,14.91709 -0.74763,1.38625 -1.490068,2.60487 -2.257725,3.55425 l -14.852628,-8.01031 c -3.168561,-1.70887 -4.407209,-2.88817 -1.808308,-7.70702 3.06172,-5.67701 7.806388,-6.10054 14.011486,-2.75401 z"
           inkscape:connector-curvature="0" />
        <path
           id="path7104"
           style="font-style:normal;font-variant:normal;font-weight:bold;font-stretch:normal;font-size:75.00000763px;font-family:HoeflerText;-inkscape-font-specification:'HoeflerText Bold';letter-spacing:-3.00000024px;word-spacing:12.00000095px"
           d="m 139.82356,230.83267 c -4.66202,-2.70218 -9.29948,-5.67366 -13.27034,-8.39632 -1.37003,2.65305 -6.24809,9.41416 -14.82053,20.03658 -8.61954,10.68079 -13.868266,16.46813 -16.219238,18.42592 3.28687,3.80907 6.946458,8.11167 10.020348,12.4235 0.25599,0.39934 1.17139,-0.0184 1.68951,-0.66045 0.28261,-0.35019 0.49559,-0.85295 0.35633,-1.15808 -3.58382,-5.59073 -3.48657,-14.668 -0.14237,-18.81191 l 1.08333,-1.34239 c 1.50724,-1.86768 2.55064,-2.08579 4.30159,-0.67275 l 28.59882,23.07965 c 3.09334,2.49637 3.76505,4.29134 0.19252,9.79301 -0.13004,0.28056 0.26521,0.98503 0.67376,1.31474 0.46692,0.37681 1.23898,0.61436 1.42738,0.3809 3.10869,-3.85208 5.07773,-6.88911 7.99801,-10.50773 2.87318,-3.56027 5.37877,-6.06791 8.48745,-9.92 0.18841,-0.23346 -0.20683,-0.93793 -0.67375,-1.31474 -0.40856,-0.32971 -1.18061,-0.56726 -1.42738,-0.3809 -4.6231,4.65383 -6.51945,4.37635 -9.61279,1.87998 l -28.59882,-23.07965 c -1.63422,-1.31883 -1.75812,-2.47896 -0.25088,-4.34664 l 1.46014,-1.80932 c 3.721,-4.61083 11.06781,-5.23545 17.38145,-2.54966 0.2222,0.0829 0.77411,-0.24267 1.05671,-0.59286 0.61232,-0.75875 0.68604,-1.56664 0.28875,-1.79088 z"
           inkscape:connector-curvature="0" />
        <path
           id="path7106"
           style="font-style:normal;font-variant:normal;font-weight:bold;font-stretch:normal;font-size:75.00000763px;font-family:HoeflerText;-inkscape-font-specification:'HoeflerText Bold';letter-spacing:-3.00000024px;word-spacing:12.00000095px"
           d="m 223.85647,207.63811 c -0.37281,-0.47013 -1.02727,-0.81261 -1.30894,-0.68498 -5.69614,3.55979 -7.32117,2.83832 -9.96729,-0.13646 l -22.44946,-25.65438 c -2.58736,-3.02138 -2.73108,-5.01323 1.73922,-9.51532 0.23507,-0.1864 -0.0546,-0.91386 -0.42745,-1.38399 -0.3262,-0.41135 -1.07387,-0.87137 -1.30893,-0.68497 -2.58569,2.05042 -4.52701,4.06846 -6.99517,6.02568 -2.05679,1.63102 -4.75795,3.29441 -7.4024,5.39143 l 11.85104,38.84476 -35.18099,-20.34437 c -2.2331,1.77082 -5.2322,4.62767 -7.23023,6.21209 -1.70421,1.35141 -4.87549,3.38761 -6.93228,5.01862 -0.23507,0.18641 -0.0163,1.06583 0.30991,1.47719 0.37281,0.47012 1.01511,0.91798 1.25017,0.73158 5.40232,-3.32679 7.72037,-3.05915 9.89637,0.28843 l 18.45339,28.82321 c 2.176,3.34758 2.09683,5.42046 -2.60854,10.10896 -0.24723,0.29177 -0.12165,1.05366 0.25115,1.52379 0.37281,0.47012 1.01511,0.91797 1.25017,0.73157 2.76198,-2.19022 4.64454,-4.16166 7.52406,-6.44509 2.76198,-2.19022 5.22808,-3.66721 8.22512,-6.04383 0.29383,-0.23301 0.0629,-1.00706 -0.30991,-1.47719 -0.32621,-0.41136 -0.90974,-0.90581 -1.19141,-0.77818 -5.47324,3.47875 -7.50963,3.08348 -9.791,-0.27626 l -18.50823,-26.96106 39.39956,22.64654 c 0.24517,0.18846 0.90169,0.0507 1.66565,-0.55509 0.64642,-0.5126 1.04767,-1.21367 0.92004,-1.49533 l -13.79179,-45.15476 22.45956,26.02924 c 2.64613,2.97478 2.78985,4.96663 -1.72706,9.40996 -0.24722,0.29177 0.0425,1.01922 0.36869,1.43058 0.3728,0.47013 1.07387,0.87138 1.3677,0.63838 3.87853,-3.07563 6.28998,-5.46648 9.93345,-8.35571 3.64346,-2.88923 6.81475,-4.92543 10.69328,-8.00106 0.23506,-0.1864 -0.0546,-0.91386 -0.42745,-1.38398 z"
           inkscape:connector-curvature="0" />
        <path
           id="path7108"
           style="font-style:normal;font-variant:normal;font-weight:bold;font-stretch:normal;font-size:75.00000763px;font-family:HoeflerText;-inkscape-font-specification:'HoeflerText Bold';letter-spacing:-3.00000024px;word-spacing:12.00000095px"
           d="m 263.15345,174.59575 c -0.0961,-0.53748 -1.20266,-0.58028 -2.07835,-0.15156 -0.40416,0.19787 -0.70798,0.43013 -0.67641,0.66519 1.08059,7.15352 -2.30355,14.73929 -8.56806,17.8063 l -5.38883,2.63829 c -1.75136,0.85745 -4.23668,1.23916 -5.85263,-2.06149 l -7.55211,-15.42551 5.38882,-2.63829 c 4.04162,-1.97872 7.35561,-1.17953 10.63312,3.97985 0.19928,0.23646 1.0048,0.17612 1.47632,-0.0547 0.53888,-0.26383 1.08057,-0.86306 0.94866,-1.1325 -1.64894,-3.36802 -3.00807,-5.29129 -4.55807,-8.45723 -1.55,-3.16593 -2.30149,-5.55371 -3.95042,-8.92173 -0.16489,-0.3368 -0.93743,-0.2091 -1.47632,0.0547 -0.47152,0.23085 -1.04619,0.76272 -0.94865,1.1325 2.06502,5.75299 0.56486,8.65861 -3.47676,10.63733 l -5.38883,2.63829 -7.05742,-14.4151 c -1.61596,-3.30066 0.17681,-5.09694 1.92818,-5.95438 l 5.38882,-2.63829 c 5.79299,-2.83616 11.94945,-1.00692 16.16439,4.36155 0.1663,0.1691 0.70237,0.24067 1.1739,0.01 0.94304,-0.4617 1.41877,-1.19565 1.12056,-1.63419 -2.58636,-3.57711 -5.46532,-8.26356 -7.51421,-11.9368 -4.2451,2.24535 -14.65437,7.5921 -19.10015,9.76869 -4.44578,2.17659 -15.18765,7.18513 -19.4973,9.12806 -0.26945,0.13192 -0.17612,1.0048 0.0547,1.47632 0.26383,0.53888 0.86306,1.08057 1.1325,0.94865 6.12277,-2.16255 7.79134,-1.14233 9.53921,2.42777 l 14.9723,30.58158 c 1.74787,3.57009 1.53035,5.51372 -3.96582,8.95613 -0.23647,0.19927 -0.17612,1.00479 0.0547,1.47631 0.26383,0.53888 0.86305,1.08057 1.1325,0.94866 4.17774,-2.21238 15.39533,-7.95487 19.84111,-10.13146 4.44578,-2.17659 15.32237,-7.25109 19.69939,-9.227 -1.30372,-4.53911 -2.79828,-10.32087 -3.5989,-14.85576 z"
           inkscape:connector-curvature="0" />
        <path
           id="path7110"
           style="font-style:normal;font-variant:normal;font-weight:bold;font-stretch:normal;font-size:75.00000763px;font-family:HoeflerText;-inkscape-font-specification:'HoeflerText Bold';letter-spacing:-3.00000024px;word-spacing:12.00000095px"
           d="m 318.78779,121.86299 c -0.17224,-0.65265 -0.58118,-1.3204 -0.94377,-1.22471 -3.33578,0.88037 -6.12163,2.08101 -9.67496,3.0188 -3.4083,0.89951 -5.98871,1.11512 -9.7596,2.11032 -0.29007,0.0766 -0.36961,0.95079 -0.2165,1.53093 0.15311,0.58014 0.5429,1.17537 0.92463,1.1522 6.35533,-0.9016 8.57016,0.14279 9.58451,3.98619 l 7.1578,27.12137 -42.68636,-27.13049 c -3.26327,0.86123 -4.47288,1.56831 -7.08349,2.2573 -2.103,0.55502 -4.95434,0.91969 -7.41992,1.5704 -0.36258,0.0957 -0.36961,0.9508 -0.23564,1.45842 0.15311,0.58013 0.56205,1.24789 0.85211,1.17133 6.73706,-0.92477 8.81493,0.77631 9.90987,5.21899 l 7.14987,32.08781 c 0.94183,3.86254 0.0576,5.80241 -6.00665,8.10097 -0.34344,0.16821 -0.46127,0.89742 -0.30816,1.47755 0.17225,0.65266 0.63456,1.22876 0.92463,1.1522 3.33578,-0.88037 5.8507,-1.93194 9.40404,-2.86973 3.4083,-0.89951 6.33216,-1.28332 10.03052,-2.25939 0.29007,-0.0765 0.38875,-0.87828 0.23565,-1.45841 -0.15311,-0.58014 -0.54291,-1.17538 -0.92463,-1.1522 -6.40871,0.99326 -8.42514,-0.18107 -9.29444,-4.06275 l -7.39255,-29.77429 46.58927,29.28073 c 0.45828,0.26689 1.02331,0.35047 1.89352,0.12081 0.94272,-0.2488 1.35464,-0.74536 1.25895,-1.10794 l -10.28351,-42.19788 c -0.94182,-3.86254 -0.0384,-5.72989 6.07917,-8.12011 0.27093,-0.14907 0.38875,-0.87828 0.23564,-1.45842 z"
           inkscape:connector-curvature="0" />
        <path
           id="path7112"
           style="font-style:normal;font-variant:normal;font-weight:bold;font-stretch:normal;font-size:75.00000763px;font-family:HoeflerText;-inkscape-font-specification:'HoeflerText Bold';letter-spacing:-3.00000024px;word-spacing:12.00000095px"
           d="m 381.75859,131.41837 c -1.1564,-5.26298 -2.09763,-10.68974 -2.77208,-15.45689 -2.88175,0.78175 -11.16232,1.75151 -24.7856,2.60516 -13.69813,0.85835 -21.51101,0.89704 -24.54266,0.48583 -0.58867,4.99659 -1.28952,10.6014 -2.39279,15.78053 -0.12156,0.4585 0.80482,0.85133 1.62821,0.79974 0.44912,-0.0281 0.96371,-0.21068 1.09465,-0.51948 1.7019,-6.419 8.46117,-12.47858 13.77574,-12.8116 l 1.72163,-0.10788 c 2.3953,-0.15009 3.2609,0.472 3.40161,2.71759 l 2.29831,36.67807 c 0.24859,3.96722 -0.62131,5.67496 -7.09133,6.75671 -0.29472,0.0936 -0.54723,0.86091 -0.51439,1.38488 0.0375,0.59883 0.38384,1.3286 0.68325,1.30983 4.94031,-0.30956 8.50981,-0.90897 13.15071,-1.19978 4.56604,-0.28611 8.1076,-0.1323 13.04791,-0.44186 0.29941,-0.0188 0.55192,-0.78606 0.5144,-1.38488 -0.0328,-0.52398 -0.37915,-1.25375 -0.68326,-1.30984 -6.55444,-0.26561 -7.63072,-1.85141 -7.87931,-5.81863 l -2.29831,-36.67806 c -0.13133,-2.09589 0.64046,-2.97087 3.03576,-3.12096 l 2.32045,-0.14541 c 5.9134,-0.37054 11.33644,4.62509 13.62053,11.09491 0.0889,0.21987 0.70182,0.4069 1.15094,0.37876 0.97309,-0.061 1.61863,-0.55231 1.51563,-0.99674 z"
           inkscape:connector-curvature="0" />
        <path
           id="path7114"
           style="font-style:normal;font-variant:normal;font-weight:bold;font-stretch:normal;font-size:75.00000763px;font-family:HoeflerText;-inkscape-font-specification:'HoeflerText Bold';letter-spacing:-3.00000024px;word-spacing:12.00000095px"
           d="m 467.58117,157.50367 c 3.24004,-14.64589 -4.37989,-29.15944 -21.95496,-33.04748 -17.57507,-3.88804 -30.60586,6.05706 -33.8459,20.70295 -3.25623,14.71912 4.4933,28.64683 22.06837,32.53488 17.57507,3.88804 30.47626,-5.47122 33.73249,-20.19035 z m -11.64348,-2.57582 c -3.01324,13.62068 -10.23689,22.31562 -21.441,19.83699 -11.20411,-2.47863 -14.08612,-13.40919 -11.07289,-27.02987 2.99703,-13.54745 10.33409,-22.755 21.5382,-20.27637 11.20411,2.47863 13.97272,13.92179 10.97569,27.46925 z"
           inkscape:connector-curvature="0" />
        <path
           id="path7116"
           style="font-style:normal;font-variant:normal;font-weight:bold;font-stretch:normal;font-size:75.00000763px;font-family:HoeflerText;-inkscape-font-specification:'HoeflerText Bold';letter-spacing:-3.00000024px;word-spacing:12.00000095px"
           d="m 521.45486,167.50326 c 0.95949,-4.4877 2.71892,-9.69179 4.03195,-13.86323 -4.39662,-1.7372 -15.08771,-6.11372 -19.70018,-8.10765 -4.54363,-1.96416 -15.40036,-6.90254 -19.67794,-8.91511 -0.34422,-0.1488 -0.87811,0.51919 -1.08643,1.00109 -0.23808,0.55075 -0.32915,1.32846 0.0151,1.47726 5.55404,3.21803 5.86312,5.14921 4.28583,8.79789 l -13.51106,31.25466 c -1.57729,3.64867 -3.19581,4.74657 -9.31529,2.83655 -0.37398,-0.08 -0.8781,0.51919 -1.08642,1.00109 -0.23809,0.55075 -0.32916,1.32845 0.0151,1.47725 4.54363,1.96417 7.8592,2.98892 12.12746,4.83404 4.26825,1.84512 7.63044,3.7071 12.17407,5.67127 0.27537,0.11904 0.84834,-0.45035 1.08642,-1.0011 0.20832,-0.4819 0.23055,-1.28936 -0.0151,-1.47725 -5.72149,-3.20871 -6.2371,-5.22917 -4.65981,-8.87784 l 6.30913,-14.59469 5.64511,2.44032 c 4.13058,1.78561 5.67704,4.82365 3.9549,10.69752 -0.11904,0.27538 0.45035,0.84835 1.00109,1.08643 0.55074,0.23808 1.35821,0.26031 1.47725,-0.0151 1.48801,-3.44215 1.99751,-5.75484 3.39623,-8.99045 1.39873,-3.23562 2.79386,-5.32887 4.28187,-8.77101 0.1488,-0.34422 -0.45035,-0.84835 -1.00109,-1.08643 -0.55075,-0.23808 -1.32846,-0.32915 -1.47726,0.0151 -3.09899,5.27868 -6.31201,6.09583 -10.44258,4.31023 l -5.64512,-2.44033 6.45793,-14.9389 c 1.45825,-3.3733 3.98858,-3.17825 5.84734,-2.37473 l 5.16321,2.23201 c 6.19586,2.6784 8.99297,8.87174 7.69142,15.6628 -0.0893,0.20653 0.34242,0.71998 0.75548,0.89854 0.75727,0.32736 1.76195,0.27143 1.90142,-0.24023 z"
           inkscape:connector-curvature="0" />
        <path
           id="path7118"
           style="font-style:normal;font-variant:normal;font-weight:bold;font-stretch:normal;font-size:75.00000763px;font-family:HoeflerText;-inkscape-font-specification:'HoeflerText Bold';letter-spacing:-3.00000024px;word-spacing:12.00000095px"
           d="m 591.03836,216.60943 c 2.60782,-4.71545 5.48539,-9.41175 8.1276,-13.4366 -2.68008,-1.31637 -9.53798,-6.05739 -20.33074,-14.41436 -10.85206,-8.40289 -16.74384,-13.5341 -18.74854,-15.8452 -3.74216,3.36285 -7.97026,7.10827 -12.21936,10.2683 -0.3941,0.26397 0.042,1.17078 0.69431,1.67587 0.35581,0.27551 0.86275,0.47833 1.16502,0.33296 5.51749,-3.69559 14.59488,-3.781 18.80524,-0.52087 l 1.36392,1.0561 c 1.89763,1.46936 2.13668,2.50816 0.75916,4.28719 l -22.49953,29.05742 c -2.43362,3.14295 -4.21472,3.85064 -9.78715,0.38954 -0.28312,-0.12437 -0.9795,0.28497 -1.30092,0.70007 -0.36734,0.47441 -0.58931,1.25109 -0.35211,1.43476 3.91386,3.03055 6.98989,4.93808 10.66654,7.78496 3.61736,2.80096 6.17491,5.25558 10.08877,8.28613 0.2372,0.18367 0.93358,-0.22567 1.30092,-0.70008 0.32142,-0.4151 0.54339,-1.19178 0.35211,-1.43475 -4.74592,-4.52852 -4.50665,-6.43007 -2.07303,-9.57302 l 22.49953,-29.05742 c 1.28568,-1.66043 2.44308,-1.80765 4.34071,-0.33829 l 1.83833,1.42344 c 4.68477,3.62748 5.45709,10.96022 2.89888,17.32663 -0.0784,0.22382 0.25821,0.76906 0.61401,1.04457 0.77091,0.59692 1.58013,0.65438 1.79633,0.25265 z"
           inkscape:connector-curvature="0" />
        <path
           id="path7120"
           style="font-style:normal;font-variant:normal;font-weight:bold;font-stretch:normal;font-size:75.00000763px;font-family:HoeflerText;-inkscape-font-specification:'HoeflerText Bold';letter-spacing:-3.00000024px;word-spacing:12.00000095px"
           d="m 625.83787,272.8176 c 11.34494,-9.81287 13.89988,-26.0048 2.12443,-39.61872 -11.77545,-13.61393 -28.16654,-13.41835 -39.51148,-3.60548 -11.40166,9.86194 -13.5028,25.66135 -1.72735,39.27528 11.77545,13.61392 27.71275,13.81086 39.1144,3.94892 z m -7.80123,-9.01922 c -10.55079,9.12597 -21.53734,11.7866 -29.04419,3.10772 -7.50685,-8.67887 -3.29118,-19.1675 7.25961,-28.29348 10.49406,-9.0769 21.87768,-12.08098 29.38453,-3.4021 7.50685,8.67887 2.89411,19.51095 -7.59995,28.58786 z"
           inkscape:connector-curvature="0" />
        <path
           id="path7122"
           style="font-style:normal;font-variant:normal;font-weight:bold;font-stretch:normal;font-size:75.00000763px;font-family:HoeflerText;-inkscape-font-specification:'HoeflerText Bold';letter-spacing:-3.00000024px;word-spacing:12.00000095px"
           d="m 680.24185,318.01258 c 0.45953,-0.2539 1.03654,-0.91547 0.89146,-1.17805 -1.81358,-3.2823 -3.15741,-4.93902 -4.89845,-8.09002 -1.74103,-3.151 -2.60976,-5.49867 -4.27825,-8.51838 -0.14509,-0.26258 -1.01228,-0.12618 -1.4718,0.12772 -0.52517,0.29017 -1.03654,0.91547 -0.89146,1.17805 2.4629,6.00826 1.59904,7.85657 -1.88019,9.77896 l -19.95634,11.02655 c -9.91252,5.47701 -17.45619,4.07548 -21.84505,-3.86766 -4.4614,-8.07444 -3.07034,-14.24134 7.56429,-20.11733 l 20.74408,-11.46181 c 3.47923,-1.92239 5.39497,-1.86697 9.20705,3.4815 0.14509,0.26259 0.94663,0.16245 1.4718,-0.12772 0.45952,-0.2539 1.03654,-0.91547 0.89145,-1.17805 -2.39392,-4.33263 -4.42691,-7.23662 -6.67575,-11.30667 -2.24884,-4.07004 -3.62537,-7.33675 -6.01929,-11.66938 -0.14509,-0.26258 -1.01228,-0.12617 -1.4718,0.12773 -0.52517,0.29017 -1.03654,0.91547 -0.89145,1.17805 2.49916,6.0739 1.52649,7.72527 -1.95274,9.64767 l -20.08763,11.09909 c -11.61931,6.42007 -14.87117,17.12829 -7.32669,30.78262 6.49261,11.75061 17.53441,12.5046 27.51258,6.99133 l 20.61279,-11.38927 c 3.61052,-1.99494 5.46751,-1.73568 9.2796,3.61279 0.14508,0.26258 0.94663,0.16245 1.47179,-0.12772 z"
           inkscape:connector-curvature="0" />
        <path
           id="path7124"
           style="letter-spacing:1.00000012px"
           d="m 653.73041,395.69868 c 0.50039,-0.15885 1.16985,-0.52875 1.15056,-0.83738 -1.13011,-5.54288 -0.0306,-7.78045 2.23535,-10.30962 l 13.53783,-16.10094 c 4.37187,6.08753 9.64922,8.5827 15.72539,6.65378 7.29141,-2.3147 10.8668,-10.13825 6.66857,-23.36286 -1.49775,-4.71798 -2.60405,-6.9635 -4.01102,-11.39553 -1.40697,-4.43203 -2.13882,-7.97675 -3.63657,-12.69472 -0.11347,-0.35743 -0.96787,-0.32226 -1.46826,-0.1634 -0.57188,0.18154 -1.21864,0.62293 -1.10518,0.98035 1.21407,6.30311 -0.0409,7.80314 -3.82955,9.00587 l -32.45393,10.30269 c -3.78868,1.20273 -5.67904,0.7012 -8.25131,-5.17074 -0.18495,-0.33473 -0.96788,-0.32225 -1.46827,-0.1634 -0.57187,0.18155 -1.21864,0.62293 -1.10517,0.98036 1.49774,4.71797 2.89905,7.89279 4.30602,12.32482 1.40698,4.43203 2.02536,7.61933 3.52311,12.3373 0.0908,0.28594 0.89639,0.34495 1.46826,0.1634 0.50039,-0.15885 1.12447,-0.67172 1.10518,-0.98035 -1.33095,-6.42338 0.0375,-7.56599 3.82615,-8.76873 L 664.03,354.02903 c 1.38428,4.36055 1.10061,5.94569 -2.17634,9.504 l -14.78825,15.63232 c 0.65811,2.07305 2.15018,5.5338 2.80829,7.60685 0.49924,1.57266 1.57149,6.18964 2.34306,8.62011 0.11346,0.35742 0.91908,0.41643 1.51365,0.30637 z m 28.34877,-31.66177 c -7.43438,2.36009 -11.79605,0.5185 -14.13344,-6.8444 -0.47656,-1.50117 -0.83624,-2.88207 -0.98488,-4.0939 l 16.084,-5.10595 c 3.43125,-1.08927 5.14006,-1.15961 6.79666,4.05875 1.95161,6.14766 -1.0428,9.85235 -7.76234,11.9855 z"
           inkscape:connector-curvature="0" />
        <path
           id="path7126"
           style="letter-spacing:1.00000012px"
           d="m 657.2806,427.42722 c 0.51978,-0.0738 1.23069,-0.40204 1.25222,-0.78386 -0.23861,-6.48083 1.25791,-7.67814 5.19343,-8.23705 l 33.71174,-4.7876 c 3.93551,-0.5589 5.70621,0.17441 7.35566,6.45488 0.0527,0.37128 0.82691,0.48859 1.42095,0.40423 0.51979,-0.0738 1.30496,-0.41258 1.25223,-0.78386 -0.696,-4.90082 -1.55236,-8.26383 -2.20617,-12.86763 -0.65382,-4.60381 -0.77817,-8.14652 -1.48471,-13.1216 -0.0422,-0.29702 -0.90117,-0.47804 -1.42096,-0.40422 -0.59403,0.0844 -1.2944,0.48684 -1.25222,0.78386 0.1749,6.56563 -1.32162,7.76294 -5.25713,8.32185 l -33.71175,4.7876 c -3.93551,0.5589 -5.70621,-0.17441 -7.29195,-6.53968 -0.11644,-0.28648 -0.90117,-0.47805 -1.42095,-0.40423 -0.59404,0.0844 -1.29441,0.48684 -1.25223,0.78386 0.70654,4.97508 1.57345,8.41234 2.22726,13.01614 0.65382,4.60381 0.76763,8.07226 1.46362,12.97309 0.0527,0.37127 0.82692,0.48858 1.42096,0.40422 z"
           inkscape:connector-curvature="0" />
        <path
           id="path7128"
           style="letter-spacing:1.00000012px"
           d="m 672.33457,471.49323 c 14.47496,-0.0323 16.37019,-24.56162 26.94517,-24.58523 4.57499,-0.0102 7.80718,3.20757 7.81874,8.38256 0.0124,5.54999 -3.80473,9.08352 -11.52569,10.90076 -0.44983,0.076 -0.59816,0.82634 -0.59682,1.42634 0.001,0.525 0.30301,1.34933 0.60285,1.27366 4.12381,-0.53421 8.2483,-0.76842 12.52279,-1.00297 0.58794,-5.40133 2.08442,-6.97967 2.07203,-12.52966 -0.025,-11.17497 -7.24001,-17.90888 -15.63999,-17.89012 -14.62497,0.0327 -15.84487,24.71044 -27.39484,24.73624 -5.02499,0.0112 -8.48084,-2.60607 -8.49474,-8.83106 -0.0149,-6.67498 4.84802,-12.08586 13.99281,-14.43128 0.44966,-0.15101 0.59832,-0.75134 0.59715,-1.27634 -10e-4,-0.6 -0.30318,-1.42433 -0.60318,-1.42366 -3.59932,0.30804 -9.89897,0.47211 -13.94862,0.63115 -0.51211,5.77616 -3.05373,9.53185 -3.03849,16.35683 0.0243,10.87497 6.34085,18.28589 16.69083,18.26278 z"
           inkscape:connector-curvature="0" />
        <path
           id="path7130"
           style="letter-spacing:1.00000012px"
           d="m 644.3803,548.93867 c 0.58687,0.12483 1.30952,-0.0282 1.44529,-0.306 2.1223,-6.37292 3.83447,-6.85219 7.76931,-6.24529 l 33.64823,5.47007 c 3.91923,0.68027 5.29907,2.12393 4.72197,8.44211 -0.0624,0.29344 0.62437,0.66955 1.21124,0.79438 0.51351,0.10922 1.38288,-0.0126 1.44529,-0.30601 0.68655,-3.22779 0.89708,-6.02009 1.55243,-9.10117 0.54612,-2.56756 1.56826,-5.57062 2.27041,-8.87177 l -33.88342,-22.38921 40.07799,-6.73429 c 0.59293,-2.78764 1.08433,-6.9004 1.61485,-9.3946 0.4525,-2.12741 1.59946,-5.71734 2.14558,-8.2849 0.0624,-0.29344 -0.66651,-0.83187 -1.18003,-0.9411 -0.58687,-0.12482 -1.36727,-0.0608 -1.42968,0.23266 -2.04428,6.00611 -4.00145,7.27673 -7.81146,6.08295 l -32.5872,-10.45847 c -3.81,-1.19378 -5.06968,-2.84191 -4.43017,-9.45353 0.005,-0.3824 -0.57755,-0.88963 -1.16442,-1.01445 -0.58687,-0.12483 -1.36727,-0.0608 -1.42969,0.23265 -0.73336,3.44787 -0.92829,6.16681 -1.69286,9.76139 -0.73336,3.44787 -1.69309,6.1575 -2.48886,9.8988 -0.078,0.3668 0.59316,0.81627 1.18003,0.94109 0.51351,0.10923 1.27831,0.11854 1.41408,-0.15929 2.00213,-6.16844 3.82353,-7.16122 7.7225,-6.0252 l 31.44303,8.98827 -44.79625,7.64766 c -0.30904,0.0109 -0.72731,0.5354 -0.93015,1.48907 -0.17164,0.80694 -0.0342,1.60295 0.24359,1.73872 l 39.39955,26.01618 -33.89486,-5.75256 c -3.93483,-0.60691 -5.31468,-2.05057 -4.66422,-8.35315 0.005,-0.3824 -0.68212,-0.75851 -1.19563,-0.86773 -0.58687,-0.12483 -1.38288,0.0126 -1.4609,0.37936 -1.02982,4.84169 -1.36518,8.22086 -2.3326,12.76912 -0.96741,4.54825 -2.11438,8.13818 -3.14421,12.97987 -0.0624,0.29344 0.62437,0.66955 1.21124,0.79437 z"
           inkscape:connector-curvature="0" />
      </g>
      <g
         transform="matrix(0.51999999,0,0,0.51999999,-2.2040335,398.99501)"
         id="text6859"
         style="font-style:normal;font-variant:normal;font-weight:bold;font-stretch:normal;font-size:45px;line-height:125%;font-family:'Swis721 BT';-inkscape-font-specification:'Swis721 BT, Bold';text-align:start;letter-spacing:10.00000095px;word-spacing:0px;writing-mode:lr-tb;text-anchor:start;fill:#000000;fill-opacity:1;stroke:none;stroke-width:1px;stroke-linecap:butt;stroke-linejoin:miter;stroke-opacity:1">
        <path
           id="path7133"
           style="font-style:normal;font-variant:normal;font-weight:bold;font-stretch:normal;font-size:75.00000763px;font-family:HoeflerText;-inkscape-font-specification:'HoeflerText Bold';letter-spacing:6.00000048px"
           d="m 166.92181,679.75985 c 7.04852,-6.62752 7.41888,-15.21153 -2.59946,-25.86627 -3.39083,-3.60622 -5.20531,-4.98853 -8.39063,-8.37619 -3.18532,-3.38766 -5.53231,-6.43116 -8.92313,-10.03738 -0.2055,-0.21856 -1.01205,0.12802 -1.39452,0.48765 -0.43712,0.41101 -0.77801,1.14333 -0.57251,1.36189 3.87195,5.21277 3.55306,6.95387 0.985,9.36855 l -25.29817,23.78715 c -2.89591,2.72293 -4.81724,3.08825 -9.72735,-1.14837 -0.26014,-0.16719 -1.01204,0.12802 -1.39452,0.48765 -0.43712,0.41101 -0.77801,1.14333 -0.57251,1.36189 3.39083,3.60622 6.0787,5.9174 9.26402,9.30506 3.18532,3.38766 5.27543,6.15797 8.66625,9.76419 0.25688,0.27319 0.95741,-0.0766 1.39452,-0.48766 0.38248,-0.35963 0.77475,-1.03731 0.57251,-1.36189 -3.92659,-5.16139 -3.39241,-7.00198 -0.4965,-9.72492 l 8.85162,-8.32293 c 1.27135,1.79005 2.39184,3.31017 4.44688,5.49576 8.22018,8.74235 18.46782,10.22509 25.1885,3.90582 z m -7.73169,-9.09871 c -5.7918,5.44587 -11.71974,6.69595 -16.90873,1.17734 -1.69541,-1.8031 -2.80937,-3.53526 -1.11554,-5.12792 l 12.56713,-11.81651 c 2.56806,-2.41467 4.28716,-3.10457 7.88349,0.72021 3.49358,3.7155 4.18505,8.83036 -2.42635,15.04688 z"
           inkscape:connector-curvature="0" />
        <path
           id="path7135"
           style="font-style:normal;font-variant:normal;font-weight:bold;font-stretch:normal;font-size:75.00000763px;font-family:HoeflerText;-inkscape-font-specification:'HoeflerText Bold';letter-spacing:6.00000048px"
           d="m 200.63081,748.2608 c 0.30515,-0.4272 0.49697,-1.21187 0.29645,-1.44727 -4.91721,-4.34193 -4.75152,-6.2513 -2.44105,-9.48585 l 19.79159,-27.70732 c 2.31048,-3.23455 4.06292,-4.01048 9.80841,-0.82811 0.24412,0.17438 0.92418,-0.26154 1.27293,-0.74978 0.30515,-0.4272 0.54057,-1.2729 0.29645,-1.44728 -4.08896,-2.92078 -7.11428,-4.62095 -10.8981,-7.32377 -3.78382,-2.70282 -5.946,-4.70812 -9.97393,-7.58531 -0.30515,-0.21797 -0.96777,0.32257 -1.27293,0.74977 -0.34875,0.48824 -0.6016,1.22931 -0.29645,1.44728 4.81259,4.35936 4.15867,5.91998 1.8482,9.15453 l -8.84955,12.38896 -19.83453,-14.16799 8.84954,-12.38896 c 2.31047,-3.23455 3.57468,-4.35923 9.25915,-1.22045 0.30514,0.21796 0.92417,-0.26155 1.27292,-0.74978 0.30516,-0.42721 0.6016,-1.22931 0.29645,-1.44728 -4.02793,-2.87719 -6.56502,-4.22861 -10.34884,-6.93143 -3.78381,-2.70282 -6.43422,-5.05687 -10.46216,-7.93406 -0.24412,-0.17438 -0.96777,0.32257 -1.27292,0.74977 -0.34875,0.48824 -0.54057,1.27291 -0.29646,1.44728 4.81259,4.35936 4.70793,6.31232 2.39746,9.54688 l -19.79159,27.70732 c -2.31048,3.23455 -4.12395,3.96688 -9.76482,0.76708 -0.28771,-0.11335 -0.96777,0.32257 -1.27292,0.74977 -0.34875,0.48824 -0.54057,1.27291 -0.29646,1.44728 4.02794,2.8772 7.11429,4.62096 10.89811,7.32378 3.78381,2.70281 5.88496,4.66452 9.9129,7.54172 0.30514,0.21797 0.92417,-0.26155 1.27292,-0.74978 0.30516,-0.42721 0.55801,-1.16828 0.29645,-1.44728 -4.85617,-4.29833 -4.20226,-5.85895 -1.89178,-9.0935 l 9.1547,-12.81616 19.83453,14.16799 -9.1547,12.81616 c -2.31047,3.23456 -3.57468,4.35923 -9.21555,1.15943 -0.34874,-0.15694 -0.96777,0.32257 -1.27292,0.74978 -0.34876,0.48823 -0.60161,1.2293 -0.29646,1.44727 4.02794,2.8772 6.62605,4.27221 10.40987,6.97503 3.78382,2.70281 6.3732,5.01328 10.46216,7.93406 0.24412,0.17438 0.92418,-0.26154 1.27293,-0.74978 z"
           inkscape:connector-curvature="0" />
        <path
           id="path7137"
           style="font-style:normal;font-variant:normal;font-weight:bold;font-stretch:normal;font-size:75.00000763px;font-family:HoeflerText;-inkscape-font-specification:'HoeflerText Bold';letter-spacing:6.00000048px"
           d="m 236.66909,765.09527 c 0.22791,-0.47295 0.3508,-1.24627 0.0455,-1.47663 -5.51751,-3.4081 -5.67957,-5.31777 -3.95397,-8.89869 l 14.7815,-30.67425 c 1.7256,-3.58092 3.32022,-4.64408 9.45634,-2.5197 0.33783,0.16279 0.8661,-0.41518 1.12657,-0.95569 0.22791,-0.47295 0.38336,-1.31384 0.0455,-1.47663 -4.45926,-2.14885 -7.73001,-3.30872 -11.91901,-5.32734 -4.18899,-2.01862 -7.20173,-3.88668 -11.72855,-6.06809 -0.27026,-0.13024 -0.89866,0.48274 -1.12656,0.95569 -0.26047,0.54051 -0.3158,1.34639 -0.0455,1.47663 5.55252,3.50822 5.71458,5.4179 3.98898,8.99881 l -14.7815,30.67426 c -1.7256,3.58091 -3.32022,4.64407 -9.49135,2.41957 -0.30282,-0.0627 -0.89866,0.48274 -1.12657,0.95569 -0.26046,0.54052 -0.31579,1.3464 -0.0455,1.47663 4.52682,2.18141 7.86514,3.37383 12.05413,5.39245 4.189,2.01862 7.13417,3.85413 11.59342,6.00298 0.33782,0.16279 0.8661,-0.41517 1.12657,-0.95569 z"
           inkscape:connector-curvature="0" />
        <path
           id="path7139"
           style="font-style:normal;font-variant:normal;font-weight:bold;font-stretch:normal;font-size:75.00000763px;font-family:HoeflerText;-inkscape-font-specification:'HoeflerText Bold';letter-spacing:6.00000048px"
           d="m 297.05358,769.72395 c 0.20651,-0.40679 -0.56615,-1.20004 -1.49626,-1.49246 -0.42929,-0.13496 -0.80952,-0.17589 -0.877,0.0388 -4.39988,6.24278 -10.57814,11.14026 -17.87597,8.84588 l -5.5807,-1.75452 c -1.86023,-0.58484 -3.92481,-2.02012 -2.8226,-5.52594 l 10.54963,-33.55572 c 1.19218,-3.79201 2.61716,-5.07363 8.99518,-3.85463 0.35773,0.11247 0.79731,-0.53552 0.97726,-1.1079 0.15746,-0.50083 0.19025,-1.35533 -0.16748,-1.4678 -4.72213,-1.4846 -8.12578,-2.16158 -12.56172,-3.5562 -4.43593,-1.39463 -7.68619,-2.80958 -12.40832,-4.29417 -0.28618,-0.09 -0.81981,0.60707 -0.97726,1.1079 -0.17996,0.57238 -0.11871,1.37783 0.16748,1.4678 5.92814,2.64995 6.43494,4.53891 5.24276,8.33092 l -10.21223,32.4825 c -1.19218,3.79201 -2.68871,5.05114 -9.04423,3.76059 -0.30868,-0.0184 -0.81981,0.60707 -0.97726,1.1079 -0.17996,0.57238 -0.11871,1.37783 0.16748,1.46781 4.55248,1.27402 16.35373,4.74837 21.07585,6.23297 4.72213,1.4846 16.17377,5.32076 20.70782,6.90346 2.00792,-4.63621 4.72535,-10.77899 7.11757,-15.13715 z"
           inkscape:connector-curvature="0" />
        <path
           id="path7141"
           style="font-style:normal;font-variant:normal;font-weight:bold;font-stretch:normal;font-size:75.00000763px;font-family:HoeflerText;-inkscape-font-specification:'HoeflerText Bold';letter-spacing:6.00000048px"
           d="m 330.17808,790.35705 c 0.0837,-0.51829 -0.019,-1.29456 -0.37721,-1.42836 -6.26003,-1.69418 -6.95964,-3.47846 -6.32623,-7.40267 l 5.42584,-33.61492 c 0.63341,-3.92421 1.85888,-5.39776 8.34597,-5.11038 0.37021,0.0598 0.71185,-0.6448 0.80746,-1.23714 0.0837,-0.51829 -0.007,-1.3686 -0.37721,-1.42836 -4.88676,-0.78878 -8.35243,-0.96832 -12.94301,-1.70929 -4.59059,-0.74098 -8.01079,-1.67289 -12.97158,-2.47362 -0.29617,-0.0478 -0.7238,0.71885 -0.80746,1.23714 -0.0956,0.59233 0.0811,1.38056 0.37721,1.42836 6.32212,1.78017 7.02173,3.56445 6.38832,7.48866 l -5.42583,33.61492 c -0.63342,3.92421 -1.85888,5.39776 -8.40807,5.02439 -0.30812,0.0262 -0.7238,0.71885 -0.80746,1.23714 -0.0956,0.59233 0.0811,1.38055 0.37722,1.42836 4.96079,0.80073 8.5005,0.99222 13.09109,1.7332 4.59058,0.74097 7.93674,1.66093 12.82349,2.44971 0.37021,0.0598 0.71185,-0.64481 0.80746,-1.23714 z"
           inkscape:connector-curvature="0" />
        <path
           id="path7143"
           style="font-style:normal;font-variant:normal;font-weight:bold;font-stretch:normal;font-size:75.00000763px;font-family:HoeflerText;-inkscape-font-specification:'HoeflerText Bold';letter-spacing:6.00000048px"
           d="m 389.46963,757.80923 c 0.13302,-9.67408 -5.78186,-15.906 -20.40548,-16.10708 -4.94953,-0.0681 -7.20447,0.27597 -11.85403,0.21204 -4.64956,-0.0639 -8.46905,-0.49149 -13.41858,-0.55955 -0.29997,-0.004 -0.61129,0.81667 -0.6185,1.34162 -0.008,0.59995 0.28141,1.354 0.58138,1.35813 6.43908,0.83861 7.46939,2.27791 7.42092,5.80258 l -0.47744,34.72172 c -0.0546,3.97462 -1.12724,5.61003 -7.58591,6.19628 -0.301,0.0709 -0.61129,0.81668 -0.61851,1.34163 -0.008,0.59994 0.28142,1.35399 0.58139,1.35812 4.94953,0.0681 8.47935,-0.25844 13.12891,-0.19451 4.64956,0.0639 8.09408,0.48633 13.04362,0.55439 0.37496,0.005 0.61025,-0.74168 0.6185,-1.34162 0.007,-0.52495 -0.20745,-1.27797 -0.58138,-1.35812 -6.44011,-0.76362 -7.39233,-2.42687 -7.33768,-6.40149 l 0.16705,-12.14886 c 2.17067,0.32988 4.0424,0.58064 7.04212,0.62188 11.99886,0.16499 20.18678,-6.17303 20.31362,-15.39716 z m -11.91563,-0.7639 c -0.1093,7.94925 -3.33016,13.08045 -10.90444,12.9763 -2.47477,-0.034 -4.49442,-0.43683 -4.46245,-2.76161 l 0.23717,-17.24838 c 0.0485,-3.52466 0.74712,-5.24022 5.99662,-5.16804 5.09952,0.0701 9.25788,3.12759 9.1331,12.20173 z"
           inkscape:connector-curvature="0" />
        <path
           id="path7145"
           style="font-style:normal;font-variant:normal;font-weight:bold;font-stretch:normal;font-size:75.00000763px;font-family:HoeflerText;-inkscape-font-specification:'HoeflerText Bold';letter-spacing:6.00000048px"
           d="m 440.42008,750.1534 c -1.51241,-9.55606 -8.40002,-14.69252 -22.84523,-12.40633 -4.88915,0.77379 -7.05287,1.49591 -11.6457,2.2228 -4.59283,0.7269 -8.42943,0.95443 -13.31858,1.72822 -0.29631,0.0469 -0.46366,0.90865 -0.38159,1.4272 0.0938,0.59262 0.50735,1.28651 0.80366,1.23961 6.48795,-0.26749 7.7478,0.97585 8.29883,4.45752 l 5.42825,34.2981 c 0.62138,3.92613 -0.15778,5.71999 -6.42297,7.39496 -0.28459,0.12098 -0.46366,0.90865 -0.38159,1.4272 0.0938,0.59262 0.50734,1.2865 0.80366,1.23961 4.88914,-0.77379 8.31219,-1.69521 12.90502,-2.42211 4.59284,-0.72689 8.05904,-0.89581 12.94819,-1.6696 0.37039,-0.0586 0.47538,-0.83457 0.38159,-1.4272 -0.0821,-0.51854 -0.42154,-1.22415 -0.80366,-1.23961 -6.47622,0.34157 -7.69716,-1.13573 -8.31854,-5.06186 l -1.8993,-12.00063 c 2.19515,-0.0437 4.08228,-0.11456 7.0454,-0.58352 11.85247,-1.87586 18.84462,-9.51277 17.40256,-18.62436 z m -11.87219,1.27151 c 1.24275,7.85226 -1.05956,13.45606 -8.54144,14.64019 -2.44457,0.3869 -4.5033,0.33306 -4.86674,-1.96336 l -2.69655,-17.03794 c -0.55103,-3.48166 -0.15398,-5.29097 5.03148,-6.11166 5.0373,-0.79724 9.65463,1.50933 11.07325,10.47277 z"
           inkscape:connector-curvature="0" />
        <path
           id="path7147"
           style="font-style:normal;font-variant:normal;font-weight:bold;font-stretch:normal;font-size:75.00000763px;font-family:HoeflerText;-inkscape-font-specification:'HoeflerText Bold';letter-spacing:6.00000048px"
           d="m 483.62771,773.0434 c -0.15681,-0.50104 -0.59556,-1.1496 -0.97584,-1.10916 -6.35718,1.28235 -7.7805,-0.001 -8.96779,-3.79465 l -10.17034,-32.49565 c -1.18729,-3.79354 -0.74963,-5.65944 5.18191,-8.30174 0.35788,-0.11201 0.3486,-0.89498 0.16938,-1.46759 -0.15681,-0.50103 -0.61795,-1.22117 -0.97584,-1.10916 -4.72403,1.47851 -7.90453,2.86686 -12.34227,4.25577 -4.43773,1.3889 -7.91382,2.08389 -12.70943,3.5848 -0.28631,0.0896 -0.3262,0.96655 -0.16938,1.46759 0.17921,0.57261 0.68953,1.19876 0.97584,1.10916 6.45115,-1.23318 7.87448,0.0503 9.06177,3.84382 l 10.17034,32.49565 c 1.18728,3.79354 0.74963,5.65944 -5.2759,8.25257 -0.2639,0.16118 -0.32619,0.96655 -0.16938,1.46759 0.17922,0.57261 0.68954,1.19876 0.97584,1.10916 4.79562,-1.50091 8.04769,-2.91167 12.48542,-4.30057 4.43774,-1.38891 7.84225,-2.0615 12.56629,-3.54001 0.35788,-0.112 0.34859,-0.89497 0.16938,-1.46758 z"
           inkscape:connector-curvature="0" />
        <path
           id="path7149"
           style="letter-spacing:12.00000095px"
           d="m 529.14196,697.24869 c -0.30567,-0.60183 -0.84591,-1.16863 -1.18026,-0.99881 -3.07598,1.56231 -5.54697,3.32206 -8.82356,4.98627 -3.14285,1.59627 -5.62019,2.34981 -9.09738,4.11591 -0.26748,0.13585 -0.16136,1.00727 0.11035,1.54222 0.2717,0.53495 0.77798,1.03489 1.14629,0.93194 6.02352,-2.21819 8.40848,-1.66303 10.20854,1.88104 l 12.70229,25.00909 -47.43796,-17.54504 c -3.00911,1.52835 -4.04294,2.47403 -6.45023,3.69672 -1.93921,0.98493 -4.65006,1.94119 -6.92361,3.09595 -0.33435,0.16982 -0.16136,1.00727 0.0764,1.47535 0.27171,0.53496 0.81195,1.10176 1.07943,0.9659 6.39183,-2.32114 8.78102,-1.09516 10.78591,3.01782 l 13.73918,29.8661 c 1.73319,3.57803 1.27673,5.66049 -4.16835,9.18316 -0.30038,0.23669 -0.26219,0.97436 0.01,1.50932 0.30567,0.60182 0.87882,1.06779 1.14629,0.93194 3.07599,-1.56232 5.31346,-3.11934 8.59005,-4.78355 3.14286,-1.59628 5.92057,-2.5865 9.3309,-4.31863 0.26748,-0.13586 0.19532,-0.9404 -0.0764,-1.47536 -0.27171,-0.53495 -0.77799,-1.03488 -1.1463,-0.93193 -6.05642,2.31902 -8.27474,1.59509 -9.94106,-2.0169 l -13.4898,-27.55329 51.70584,18.82625 c 0.50416,0.16453 1.07414,0.1274 1.87657,-0.28016 0.8693,-0.44153 1.16756,-1.01362 0.99775,-1.34796 l -18.92923,-39.09087 c -1.73318,-3.57803 -1.24277,-5.59363 4.23522,-9.21713 0.23351,-0.20272 0.19532,-0.9404 -0.0764,-1.47535 z"
           inkscape:connector-curvature="0" />
        <path
           id="path7151"
           style="letter-spacing:5.00000048px"
           d="m 591.96838,691.74712 c -0.21437,-0.50217 -1.30225,-0.29539 -2.0593,0.31902 -0.3494,0.28358 -0.59331,0.57813 -0.50976,0.80009 2.65937,6.72818 1.0651,14.88015 -4.35069,19.27558 l -4.65875,3.78101 c -1.51409,1.22883 -3.85022,2.1589 -6.16609,-0.69459 l -10.82315,-13.33566 4.65874,-3.78102 c 3.49406,-2.83576 6.90288,-2.80116 11.25527,1.49046 0.24729,0.18568 1.01868,-0.054 1.42632,-0.38485 0.46588,-0.3781 0.85917,-1.08367 0.67012,-1.31661 -2.36314,-2.91171 -4.11945,-4.48066 -6.3408,-7.21768 -2.22134,-2.73701 -3.48984,-4.89506 -5.85298,-7.80678 -0.23631,-0.29117 -0.96044,0.007 -1.42632,0.38486 -0.40764,0.33084 -0.84819,0.97817 -0.67011,1.3166 3.30417,5.14235 2.49479,8.31063 -0.99927,11.14639 l -4.65875,3.78102 -10.11421,-12.46215 c -2.31587,-2.85348 -0.97226,-5.00647 0.54183,-6.2353 l 4.65875,-3.78101 c 5.00815,-4.06459 11.41815,-3.66455 16.73098,0.62031 0.20003,0.12744 0.73848,0.0768 1.14612,-0.25403 0.81528,-0.66168 1.11405,-1.48371 0.72498,-1.84409 -3.32358,-2.90497 -7.1814,-6.82524 -10.00281,-9.94457 -3.63247,3.14128 -12.57524,10.68896 -16.41871,13.8083 -3.84347,3.11934 -13.18628,10.41214 -16.94957,13.27322 -0.23294,0.18905 0.054,1.01868 0.38485,1.42632 0.3781,0.46588 1.08367,0.85917 1.3166,0.67012 5.48078,-3.48225 7.33584,-2.86277 9.84077,0.22365 l 21.45726,26.43839 c 2.50492,3.08642 2.72942,5.02926 -1.85337,9.61796 -0.18567,0.24728 0.054,1.01868 0.38485,1.42632 0.37811,0.46587 1.08367,0.85916 1.31661,0.67011 3.57424,-3.09402 13.21582,-11.20885 17.05928,-14.32819 3.84347,-3.11934 13.30276,-10.50666 17.12428,-13.41501 -2.28971,-4.13042 -5.04445,-9.4289 -6.84297,-13.66819 z"
           inkscape:connector-curvature="0" />
        <path
           id="path7153"
           style="letter-spacing:5.00000048px"
           d="m 621.69448,658.23002 c -10.76343,-9.67854 -28.61179,7.2541 -36.47523,0.18325 -3.40191,-3.05903 -3.64362,-7.61346 -0.18342,-11.46152 3.71095,-4.12691 8.91212,-4.19052 15.85989,-0.36374 0.38476,0.24512 0.99778,-0.21228 1.39896,-0.65843 0.35103,-0.39039 0.67959,-1.20444 0.40636,-1.34926 -3.41833,-2.36775 -6.63608,-4.95858 -9.96536,-7.6497 -4.0568,3.61419 -6.22529,3.78238 -9.93623,7.9093 -7.47204,8.30959 -6.63151,18.143 -0.38538,23.75957 10.87497,9.77884 28.3217,-7.71668 36.91014,0.006 3.73653,3.35991 4.54673,7.61863 0.38446,12.24746 -4.46317,4.96345 -11.69881,5.71921 -20.05722,1.33001 -0.43491,-0.18935 -0.94763,0.15651 -1.29866,0.54689 -0.40119,0.44615 -0.72974,1.2602 -0.50666,1.4608 2.87751,2.18402 7.6624,6.2849 10.77423,8.88135 4.25177,-3.94318 8.65531,-5.02661 13.21877,-10.10159 7.27145,-8.08652 7.55149,-17.82008 -0.14465,-24.74049 z"
           inkscape:connector-curvature="0" />
      </g>
      <path
         transform="matrix(0.74021219,-0.12550435,0.12959337,0.71685649,-76.364045,297.01767)"
         inkscape:transform-center-y="0.43426813"
         inkscape:transform-center-x="2.0358471"
         d="m 77.458369,600.69703 -11.700004,-4.94936 -8.90252,9.06264 1.091619,-12.65681 -11.37011,-5.66629 12.374662,-2.87297 1.875405,-12.5646 6.556343,10.88121 12.529174,-2.09906 -8.322619,9.59793 z"
         inkscape:randomized="0"
         inkscape:rounded="1.44676e-015"
         inkscape:flatsided="false"
         sodipodi:arg2="1.373738"
         sodipodi:arg1="0.74541948"
         sodipodi:r2="7.314023"
         sodipodi:r1="17.871424"
         sodipodi:cy="588.5752"
         sodipodi:cx="64.326385"
         sodipodi:sides="5"
         id="path6866"
         style="fill:#000000;fill-opacity:1;stroke:none;stroke-width:1;stroke-linecap:round;stroke-linejoin:miter;stroke-miterlimit:4;stroke-dasharray:none;stroke-dashoffset:0;stroke-opacity:1"
         sodipodi:type="star" />
      <path
         transform="matrix(-0.74021219,-0.12550435,-0.12959337,0.71685649,456.78564,299.61767)"
         inkscape:transform-center-y="0.43426813"
         inkscape:transform-center-x="-2.0358481"
         d="m 77.458369,600.69703 -11.700004,-4.94936 -8.90252,9.06264 1.091619,-12.65681 -11.37011,-5.66629 12.374662,-2.87297 1.875405,-12.5646 6.556343,10.88121 12.529174,-2.09906 -8.322619,9.59793 z"
         inkscape:randomized="0"
         inkscape:rounded="1.44676e-015"
         inkscape:flatsided="false"
         sodipodi:arg2="1.373738"
         sodipodi:arg1="0.74541948"
         sodipodi:r2="7.314023"
         sodipodi:r1="17.871424"
         sodipodi:cy="588.5752"
         sodipodi:cx="64.326385"
         sodipodi:sides="5"
         id="path6866-4"
         style="fill:#000000;fill-opacity:1;stroke:none;stroke-width:1;stroke-linecap:round;stroke-linejoin:miter;stroke-miterlimit:4;stroke-dasharray:none;stroke-dashoffset:0;stroke-opacity:1"
         sodipodi:type="star" />
    </g>
  </g>
</svg>
